<svg xmlns="http://www.w3.org/2000/svg" width="32.999" height="48.001" viewBox="0 0 32.999 48.001">
  <g>
    <path d="M16.5,0C7.387,0,0,6.949,0,15.521,0,22.358,6.606,30,6.606,36.781H26.393c0-7.076,6.606-14.423,6.606-21.26C33,6.949,25.613,0,16.5,0Z" fill="#ffbd66"/>
    <path d="M19.5,37.531a.75.75,0,0,1-.735-.6c-.2-.989-1.462-7.588-.986-12.616H14.685c.477,5.028-.788,11.626-.986,12.616a.75.75,0,1,1-1.471-.294,50.093,50.093,0,0,0,.949-12.322H10.836a3.068,3.068,0,0,1-3.1-2.827,2.962,2.962,0,0,1,2.956-3.093,3.144,3.144,0,0,1,2.495,1.2,7.2,7.2,0,0,1,1.293,3.219h3.5a7.237,7.237,0,0,1,1.277-3.2,3.15,3.15,0,0,1,2.467-1.219h.036a2.96,2.96,0,1,1,0,5.92H19.285a50.081,50.081,0,0,0,.948,12.322.751.751,0,0,1-.588.883A.733.733,0,0,1,19.5,37.531Zm.007-14.72h2.264A1.463,1.463,0,0,0,22.96,22.2a1.489,1.489,0,0,0,.173-1.387,1.442,1.442,0,0,0-1.371-.917h-.018a1.623,1.623,0,0,0-1.318.663A5.353,5.353,0,0,0,19.505,22.811Zm-8.814-2.92a1.458,1.458,0,0,0-1.457,1.526,1.555,1.555,0,0,0,1.6,1.394h2.121a5.314,5.314,0,0,0-.932-2.268A1.623,1.623,0,0,0,10.691,19.891Z" fill="#f87670"/>
    <path d="M27.375,36.781H5.625v7.751h3.53C9.861,46.512,12.88,48,16.5,48s6.637-1.488,7.343-3.469h3.533V36.781Z" fill="#c6c6c6"/>
    <rect x="4.5" y="36.031" width="24" height="1.5" fill="#525c6b"/>
    <rect x="4.5" y="39.906" width="24" height="1.5" fill="#525c6b"/>
    <rect x="4.5" y="43.781" width="24" height="1.5" fill="#525c6b"/>
  </g>
</svg>
