<svg id="artwork" xmlns="http://www.w3.org/2000/svg" viewBox="0 0 512 512"><title>Creativity</title><g id="Creativity"><path d="M332.8,320.84l-1.22,1.91,18.21,91.09-134,38.4L204,414.35H151.88l-20.2-63.76-30.88-8.44,26.26-61.82-.34-1.84c-.06-.3-.12-.59-.16-.87l0-.13a119.94,119.94,0,0,1-2-22.12v-.64a119,119,0,0,1,14.79-56.93,116.61,116.61,0,0,1,21.25-27.62,115.24,115.24,0,0,1,20.08-15.4,111.49,111.49,0,0,1,57.86-16.16c36,0,69.1,16.85,90.85,46.26a116,116,0,0,1,13.53,23.54,118.31,118.31,0,0,1,9.59,46v.1c0,.29,0,.56,0,.85,0,2.82-.11,5.65-.3,8.41a118,118,0,0,1-19,56.55Z" style="fill:#c6d0dc"/><path d="M311.53,323.18l-1.23,1.91,18.4,91.63-112.25,32-10.28-33H153.48l-20.42-64.13-31.21-8.49,26.55-62.18-.35-1.85c-.06-.3-.11-.59-.16-.88l0-.13a120.4,120.4,0,0,1-2.06-22.25v-.64a119.1,119.1,0,0,1,14.93-57.26,117.23,117.23,0,0,1,21.49-27.78,115.9,115.9,0,0,1,20.29-15.49A112.59,112.59,0,0,1,221.88,140c34.15,1.67,65.29,18.37,86.13,46.39a116.24,116.24,0,0,1,13.68,23.69,118.48,118.48,0,0,1,9.69,46.26v.1c0,.29,0,.56,0,.85,0,2.85-.11,5.7-.3,8.47a118.28,118.28,0,0,1-19.22,56.87A6,6,0,0,0,311.53,323.18Z" style="fill:#fff"/><circle cx="291.79" cy="178.04" r="61.54" style="fill:#fff"/><path d="M348.57,176.16c0-28.9-21.79-52.34-48.68-52.34s-48.67,23.44-48.67,52.34c0,23.1,13.92,42.69,33.22,49.63v16.52H310.5V227.24C332.28,222,348.57,201.15,348.57,176.16Z" style="fill:#f7c648"/><rect x="279.25" y="279.79" width="23.96" height="16.76" style="fill:#f7c648"/><path d="M350.53,209.17c-.31-.77-.64-1.54-1-2.31-.06-.14-.12-.28-.19-.42a65.23,65.23,0,0,0-107.06-72.77c-.8,0-1.6,0-2.4,0h-.38a116.9,116.9,0,0,0-36.5,5.93A119.46,119.46,0,0,0,158,166.79a121.81,121.81,0,0,0-22.28,28.94,124.4,124.4,0,0,0-15.49,59.5c0,.24,0,.49,0,.75a125.69,125.69,0,0,0,2.06,22.64L100.1,330.79l-6.47,15.28,35.72,9.76,19.92,62.88h49.79l12,38.69L358.8,415.09l-18.5-92.52a123.58,123.58,0,0,0,19-57.79c.2-2.89.3-5.85.3-8.8,0-.35,0-.7,0-1A123.52,123.52,0,0,0,350.53,209.17ZM247.34,146.53a53.33,53.33,0,0,1,93.92,48.76,53.35,53.35,0,0,1-32.7,32l-4,1.39v7.67H277.93v-7.68l-4-1.39a53.31,53.31,0,0,1-26.57-80.71Zm57.2,101.78v5.05H277.93v-5.05ZM348.89,256c0,2.7-.1,5.4-.28,8a112.94,112.94,0,0,1-18.18,54.05l-.33.5-1.17,1.82,17.42,87.1L218.21,444.21l-7.92-25.5H232V408H157.12l-19.31-61L108.28,339l25.12-59.13-.34-1.75-.15-.84,0-.11a114,114,0,0,1-2-21.15v-.61a113.39,113.39,0,0,1,14.14-54.43,111.2,111.2,0,0,1,20.32-26.42,109.89,109.89,0,0,1,19.19-14.72,107.05,107.05,0,0,1,21.8-10.07,105.87,105.87,0,0,1,25.92-5.11l2.24-.12c-.4.69-.79,1.38-1.16,2.09A65.25,65.25,0,0,0,266,237v28.3h50.45V237a64.93,64.93,0,0,0,24.2-17.58c.54-.62,1-1.25,1.56-1.89.27.75.55,1.5.81,2.26a113.79,113.79,0,0,1,5.86,35.27Z"/><path d="M273.25,273.43h-7.5v12h7.5V302.9h36V285.43h7.5v-12H273.25Zm24,17.47h-12v-5.47h12Z"/><path d="M326.49,176.16h12a46.75,46.75,0,0,0-46.7-46.7v12A34.74,34.74,0,0,1,326.49,176.16Z"/><path d="M312.67,203.61l6.89,9.83A47.08,47.08,0,0,0,337.08,190L325.7,186.2A35,35,0,0,1,312.67,203.61Z"/><rect x="348.09" y="98.97" width="42.4" height="12" transform="translate(33.93 291.85) rotate(-45)"/><rect x="377.59" y="144.5" width="42.4" height="12"/><rect x="317.75" y="54.27" width="12" height="42.4"/><polygon points="279.22 69.45 266.6 69.45 266.6 56.82 254.6 56.82 254.6 69.45 241.97 69.45 241.97 81.45 254.6 81.45 254.6 94.07 266.6 94.07 266.6 81.45 279.22 81.45 279.22 69.45" style="fill:#5cacdf"/><polygon points="417.41 202.52 404.78 202.52 404.78 189.9 392.78 189.9 392.78 202.52 380.16 202.52 380.16 214.52 392.78 214.52 392.78 227.15 404.78 227.15 404.78 214.52 417.41 214.52 417.41 202.52" style="fill:#ef835e"/></g></svg>