<svg xmlns="http://www.w3.org/2000/svg" width="128" height="128" viewBox="0 0 128 128">
  <title>GOAL</title>
  <g>
    <g>
      <polygon points="87.421 36.53 67.522 36.53 73.306 29.59 67.522 22.65 87.421 22.65 87.421 36.53" fill="#f7d6bf"/>
      <path d="M87.421,51.568a1.751,1.751,0,0,1-1.75-1.75V22.65a1.75,1.75,0,1,1,3.5,0V49.818A1.751,1.751,0,0,1,87.421,51.568Z" fill="#01456b"/>
      <rect x="26.926" y="91.495" width="17.249" height="13.859" fill="#318fb5"/>
      <rect x="44.237" y="91.495" width="17.249" height="13.859" fill="#80bfbe"/>
      <rect x="61.547" y="91.495" width="17.249" height="13.859" fill="#318fb5"/>
      <rect x="78.796" y="91.495" width="17.249" height="13.859" fill="#80bfbe"/>
      <rect x="44.237" y="77.586" width="17.249" height="13.859" fill="#318fb5"/>
      <rect x="61.547" y="77.586" width="17.249" height="13.859" fill="#80bfbe"/>
      <rect x="78.796" y="77.586" width="17.249" height="13.859" fill="#318fb5"/>
      <rect x="61.547" y="63.726" width="17.249" height="13.859" fill="#318fb5"/>
      <rect x="78.796" y="63.726" width="17.249" height="13.859" fill="#80bfbe"/>
      <rect x="78.796" y="49.818" width="17.249" height="13.859" fill="#318fb5"/>
    </g>
    <g>
      <path d="M97.8,49.818a1.75,1.75,0,0,0-1.75-1.75H89.171V22.65a1.751,1.751,0,0,0-1.75-1.75h-19.9a1.751,1.751,0,0,0-1.344,2.871l4.851,5.819-4.851,5.819a1.751,1.751,0,0,0,1.344,2.871h4.735a1.75,1.75,0,0,0,0-3.5h-1l3.392-4.07a1.75,1.75,0,0,0,0-2.241L71.258,24.4H85.671V34.78H83.756a1.75,1.75,0,0,0,0,3.5h1.915v9.788H78.8a1.751,1.751,0,0,0-1.75,1.75V61.977h-15.5a1.75,1.75,0,0,0-1.75,1.75V75.836H44.237a1.751,1.751,0,0,0-1.75,1.75V89.745H26.926a1.75,1.75,0,0,0-1.75,1.75v4.087a1.75,1.75,0,0,0,3.5,0V93.245H42.425V103.6H28.676v-1.522a1.75,1.75,0,0,0-3.5,0v3.272a1.751,1.751,0,0,0,1.75,1.75H44.175c.011,0,.021,0,.031,0s.02,0,.031,0H61.486c.01,0,.02,0,.031,0s.02,0,.03,0h34.5a1.75,1.75,0,0,0,1.75-1.75V91.5c0-.009,0-.017,0-.025s0-.016,0-.025V63.727c0-.009,0-.017,0-.025s0-.016,0-.025ZM94.3,75.836H80.546V65.477H94.3Zm-13.749,3.5H94.3V89.7H80.546ZM77.046,89.7H63.3V79.336H77.046Zm3.5-38.127H94.3V61.927H80.546ZM63.3,65.477H77.046V75.836H63.3ZM45.987,79.336H59.736V89.7H45.987ZM59.736,103.6H45.987V93.245H59.736ZM63.3,93.245H77.046V103.6H63.3Zm31,10.359H80.546V93.245H94.3Z" fill="#172956"/>
      <path d="M78.339,38.28a1.75,1.75,0,0,0,0-3.5h-.333a1.75,1.75,0,0,0,0,3.5Z" fill="#172956"/>
    </g>
  </g>
</svg>
